<svg xmlns="http://www.w3.org/2000/svg" viewBox="0 0 1200 630">
  <defs>
    <pattern id="grid" width="48" height="48" patternUnits="userSpaceOnUse">
      <path d="M48 0H0V48" fill="none" stroke="#b8ff3d" stroke-opacity=".07"/>
    </pattern>
    <filter id="glow"><feGaussianBlur stdDeviation="7" result="b"/><feMerge><feMergeNode in="b"/><feMergeNode in="SourceGraphic"/></feMerge></filter>
  </defs>
  <rect width="1200" height="630" fill="#050505"/>
  <rect width="1200" height="630" fill="url(#grid)"/>
  <path d="M58 54H1142M58 576H1142" stroke="#2a2d26"/>
  <rect x="58" y="54" width="46" height="46" fill="none" stroke="#b8ff3d" stroke-width="2"/>
  <path d="M68 77H94M81 64V90" stroke="#b8ff3d" stroke-width="2"/>
  <rect x="78" y="74" width="6" height="6" fill="#b8ff3d" filter="url(#glow)"/>
  <text x="122" y="86" fill="#f0f1eb" font-family="Arial Narrow, sans-serif" font-weight="700" font-size="22" letter-spacing="2">ROHAN BAHL</text>
  <text x="58" y="176" fill="#b8ff3d" font-family="monospace" font-size="15" letter-spacing="2">// CAPTURE SYSTEMS · OPERATOR TOOLS</text>
  <text x="58" y="282" fill="#f0f1eb" font-family="Arial Narrow, sans-serif" font-weight="900" font-size="94" letter-spacing="-3">CAMERAS, TRACKERS,</text>
  <text x="58" y="376" fill="#f0f1eb" font-family="Arial Narrow, sans-serif" font-weight="900" font-size="94" letter-spacing="-3">OPERATORS. ONE CLOCK.</text>
  <path d="M682 471 C705 470 714 469 729 467L741 466 747 424 754 506 762 453 771 466C800 468 814 469 838 466C865 463 879 461 894 458L906 457 912 417 920 502 928 448 937 460C967 465 980 466 1003 463C1032 459 1044 458 1061 455L1073 454 1079 414 1087 498 1095 445 1104 457C1118 459 1130 460 1142 458" fill="none" stroke="#b8ff3d" stroke-width="3" filter="url(#glow)"/>
  <text x="58" y="526" fill="#8f9489" font-family="monospace" font-size="17">FOUNDING ENGINEER · CORTEX AI · SINGAPORE</text>
  <circle cx="1129" cy="520" r="5" fill="#b8ff3d" filter="url(#glow)"/>
</svg>
